<svg width="288" height="84" viewBox="0 0 288 84" fill="none" xmlns="http://www.w3.org/2000/svg">
<mask id="mask0_1621_2075" style="mask-type:luminance" maskUnits="userSpaceOnUse" x="35" y="3" width="67" height="79">
<path d="M75.8646 3.83827H75.904C80.3543 3.84621 84.6054 5.57772 87.5697 8.58009C92.8538 13.8223 101.778 25.3551 101.778 43.2739C101.778 59.8423 94.2208 70.7 87.8875 76.8875C81.5462 82.9638 70.5166 82.9638 64.2467 76.9273C64.1276 76.8161 64.0243 76.6971 63.9131 76.5776L48.7352 59.215L57.111 51.8996L72.0981 69.0481C74.1641 70.8589 78.1609 70.8112 80.1477 68.8971C84.9153 64.2347 90.653 55.9742 90.653 43.2739C90.653 30.5735 84.693 21.3996 79.6868 16.4354C78.7492 15.4902 77.3743 14.966 75.8725 14.966H75.8563C74.3943 14.966 73.0435 15.4585 72.1217 16.3242L53.5825 37.3884C56.6501 37.3884 59.1372 39.8824 59.1372 42.9483C59.1372 46.0141 56.6501 48.5083 53.5746 48.5083H41.2815C39.0962 48.5083 37.1096 47.2293 36.2116 45.2358C35.3137 43.2421 35.6633 40.9149 37.1017 39.2708L63.9131 8.81838C63.9924 8.73097 64.0642 8.65157 64.1513 8.5642C67.147 5.55391 71.4143 3.83032 75.8646 3.83032V3.83827Z" fill="white"/>
</mask>
<g mask="url(#mask0_1621_2075)">
<mask id="mask1_1621_2075" style="mask-type:luminance" maskUnits="userSpaceOnUse" x="33" y="1" width="71" height="83">
<path d="M103.764 1.85205H33.7402V83.4237H103.764V1.85205Z" fill="white"/>
</mask>
<g mask="url(#mask1_1621_2075)">
<path d="M103.86 1.58215H33.6768V83.5513H103.86V1.58215Z" fill="url(#paint0_radial_1621_2075)"/>
</g>
</g>
<mask id="mask2_1621_2075" style="mask-type:luminance" maskUnits="userSpaceOnUse" x="1" y="4" width="68" height="78">
<path d="M27.9002 81.8598H27.8605C23.4105 81.8515 19.1591 80.1204 16.1951 77.1177C10.9107 71.8757 1.98682 60.343 1.98682 42.424C1.98682 25.8635 9.5439 15.0057 15.8772 8.81836C22.2185 2.74215 33.2482 2.74215 39.518 8.77862C39.6371 8.88984 39.7405 9.00899 39.8517 9.12813L55.0293 26.4909L46.654 33.8062L31.6669 16.6578C29.6008 14.8469 25.6037 14.8945 23.6171 16.8087C18.8492 21.4711 13.1118 29.7315 13.1118 42.432C13.1118 55.1325 19.0717 64.3064 24.078 69.2705C25.0157 70.2155 26.3904 70.7399 27.8923 70.7399H27.9082C29.3703 70.7399 30.7212 70.2474 31.643 69.3817L50.182 48.3174C47.1149 48.3174 44.6275 45.8235 44.6275 42.7576C44.6275 39.6917 47.1149 37.1977 50.1899 37.1977H62.4832C64.6683 37.1977 66.6551 38.4765 67.5529 40.4701C68.4511 42.4638 68.1013 44.791 66.663 46.4353L39.8676 76.8875C39.7881 76.975 39.7166 77.0542 39.6292 77.1418C36.6334 80.1519 32.3662 81.8756 27.9161 81.8756L27.9002 81.8598Z" fill="white"/>
</mask>
<g mask="url(#mask2_1621_2075)">
<mask id="mask3_1621_2075" style="mask-type:luminance" maskUnits="userSpaceOnUse" x="-1" y="2" width="72" height="82">
<path d="M70.0242 2.27307H-0.000244141V83.8447H70.0242V2.27307Z" fill="white"/>
</mask>
<g mask="url(#mask3_1621_2075)">
<path d="M70.2945 1.96362H-0.270264V83.9328H70.2945V1.96362Z" fill="url(#paint1_radial_1621_2075)"/>
</g>
</g>
<path d="M120.329 22.9292C119.876 22.9292 119.481 22.9029 119.141 22.8501C118.795 22.8049 118.501 22.7483 118.259 22.6804V19.7626C118.501 19.8154 118.76 19.8644 119.04 19.9096C119.311 19.9624 119.601 19.9888 119.911 19.9888C120.317 19.9888 120.683 19.9096 121.008 19.7513C121.332 19.6005 121.588 19.3102 121.777 18.8805C121.965 18.4507 122.059 17.8324 122.059 17.0257V1.53174H125.565V17.0031C125.565 18.4206 125.343 19.5628 124.898 20.4298C124.461 21.3045 123.846 21.9378 123.055 22.3299C122.27 22.7294 121.362 22.9292 120.329 22.9292ZM133.176 18.0662H129.727V1.53174H139.204V4.40434H133.176V8.66801H138.786V11.5293H133.176V18.0662ZM149.225 5.18471C149.398 5.18471 149.598 5.19601 149.824 5.21862C150.058 5.23372 150.246 5.25632 150.389 5.28648L150.129 8.52098C150.016 8.48332 149.854 8.45691 149.643 8.44181C149.44 8.41921 149.262 8.4079 149.112 8.4079C148.667 8.4079 148.233 8.46446 147.811 8.57754C147.396 8.69062 147.023 8.87535 146.691 9.13171C146.36 9.38051 146.096 9.71224 145.9 10.1269C145.711 10.5341 145.617 11.0355 145.617 11.6311V18.0662H142.167V5.42221H144.78L145.289 7.54837H145.459C145.707 7.11862 146.016 6.72654 146.386 6.37221C146.763 6.01029 147.189 5.72377 147.664 5.51268C148.146 5.29403 148.667 5.18471 149.225 5.18471ZM164.176 11.7216C164.176 12.7771 164.033 13.712 163.746 14.5263C163.467 15.3406 163.056 16.0305 162.513 16.596C161.978 17.1539 161.33 17.5761 160.568 17.8626C159.814 18.1491 158.962 18.2924 158.012 18.2924C157.122 18.2924 156.304 18.1491 155.558 17.8626C154.819 17.5761 154.174 17.1539 153.624 16.596C153.081 16.0305 152.659 15.3406 152.357 14.5263C152.063 13.712 151.916 12.7771 151.916 11.7216C151.916 10.3192 152.165 9.13171 152.663 8.1591C153.16 7.18649 153.869 6.44758 154.789 5.94242C155.709 5.43726 156.806 5.18471 158.08 5.18471C159.264 5.18471 160.312 5.43726 161.224 5.94242C162.144 6.44758 162.864 7.18649 163.384 8.1591C163.912 9.13171 164.176 10.3192 164.176 11.7216ZM155.433 11.7216C155.433 12.5509 155.524 13.2483 155.705 13.8138C155.886 14.3793 156.169 14.8053 156.553 15.0918C156.938 15.3783 157.439 15.5215 158.057 15.5215C158.668 15.5215 159.162 15.3783 159.539 15.0918C159.923 14.8053 160.203 14.3793 160.376 13.8138C160.557 13.2483 160.647 12.5509 160.647 11.7216C160.647 10.8847 160.557 10.191 160.376 9.64062C160.203 9.0827 159.923 8.66426 159.539 8.3853C159.154 8.10629 158.653 7.96681 158.035 7.96681C157.122 7.96681 156.459 8.27973 156.044 8.90551C155.637 9.5313 155.433 10.47 155.433 11.7216ZM170.724 23.6304C168.96 23.6304 167.61 23.3213 166.675 22.7031C165.748 22.0924 165.284 21.2328 165.284 20.1245C165.284 19.363 165.521 18.7259 165.997 18.2132C166.471 17.7005 167.169 17.3348 168.089 17.1162C167.734 16.9654 167.425 16.7203 167.161 16.3811C166.898 16.0342 166.766 15.6686 166.766 15.284C166.766 14.8015 166.905 14.4019 167.184 14.0852C167.463 13.7611 167.866 13.4444 168.394 13.1353C167.731 12.8488 167.203 12.3888 166.811 11.7555C166.427 11.1222 166.234 10.3757 166.234 9.51624C166.234 8.59639 166.434 7.81603 166.833 7.17519C167.24 6.52675 167.829 6.03289 168.598 5.69362C169.374 5.35434 170.317 5.18471 171.425 5.18471C171.659 5.18471 171.93 5.19976 172.239 5.22992C172.549 5.26007 172.831 5.29403 173.087 5.33174C173.351 5.3694 173.529 5.39956 173.619 5.42221H178.03V7.17519L176.051 7.6841C176.232 7.96306 176.368 8.26087 176.458 8.57754C176.548 8.89421 176.594 9.22973 176.594 9.5841C176.594 10.9412 176.118 12.0005 175.169 12.762C174.226 13.516 172.914 13.893 171.233 13.893C170.833 13.8704 170.456 13.8402 170.102 13.8025C169.929 13.9382 169.797 14.0815 169.706 14.2323C169.615 14.3831 169.571 14.5414 169.571 14.7073C169.571 14.8731 169.638 15.0126 169.774 15.1257C169.917 15.2313 170.128 15.3142 170.407 15.3746C170.694 15.4273 171.048 15.4537 171.47 15.4537H173.619C175.007 15.4537 176.062 15.7515 176.786 16.3472C177.517 16.9428 177.883 17.8174 177.883 18.9709C177.883 20.4487 177.264 21.5947 176.028 22.409C174.799 23.2233 173.031 23.6304 170.724 23.6304ZM170.871 21.3799C171.693 21.3799 172.398 21.3007 172.986 21.1424C173.582 20.9916 174.038 20.7729 174.354 20.4864C174.671 20.2075 174.829 19.8719 174.829 19.4799C174.829 19.1632 174.735 18.9106 174.547 18.7221C174.365 18.5412 174.087 18.413 173.71 18.3376C173.34 18.2622 172.865 18.2245 172.285 18.2245H170.498C170.075 18.2245 169.695 18.2924 169.356 18.4281C169.024 18.5638 168.76 18.7523 168.564 18.9936C168.368 19.2424 168.27 19.5289 168.27 19.8531C168.27 20.3281 168.496 20.7013 168.948 20.9727C169.408 21.2442 170.049 21.3799 170.871 21.3799ZM171.425 11.7894C172.073 11.7894 172.549 11.5896 172.85 11.19C173.152 10.7904 173.302 10.2476 173.302 9.56145C173.302 8.79994 173.144 8.23071 172.828 7.85373C172.519 7.4692 172.051 7.27696 171.425 7.27696C170.792 7.27696 170.317 7.4692 170 7.85373C169.684 8.23071 169.525 8.79994 169.525 9.56145C169.525 10.2476 169.68 10.7904 169.989 11.19C170.306 11.5896 170.784 11.7894 171.425 11.7894Z" fill="#36A13B"/>
<g clip-path="url(#clip0_1621_2075)">
<path fill-rule="evenodd" clip-rule="evenodd" d="M135.013 48.0601C144.649 48.0601 152.025 55.5213 152.025 64.5814C152.025 73.6414 144.649 81.1027 135.013 81.1027C125.378 81.1027 118.002 73.6414 118.002 64.5814C118.002 55.5213 125.378 48.0601 135.013 48.0601ZM135.013 55.5213C130.153 55.5213 126.955 59.4438 126.955 64.5814C126.955 69.719 130.153 73.6414 135.013 73.6414C139.874 73.6414 143.071 69.719 143.071 64.5814C143.071 59.4438 139.874 55.5213 135.013 55.5213Z" fill="white"/>
<path d="M118.002 37.1879C118.002 34.8429 119.92 32.9243 122.265 32.9243H126.102C126.571 32.9243 126.955 33.308 126.955 33.777V79.3972C126.955 79.8661 126.571 80.2499 126.102 80.2499H118.854C118.385 80.2499 118.002 79.8661 118.002 79.3972V37.1879Z" fill="white"/>
<path fill-rule="evenodd" clip-rule="evenodd" d="M171.254 48.0601C180.889 48.0601 188.265 55.5213 188.265 64.5814C188.265 73.6414 180.889 81.1027 171.254 81.1027C161.618 81.1027 154.242 73.6414 154.242 64.5814C154.242 55.5213 161.618 48.0601 171.254 48.0601ZM171.254 55.5213C166.393 55.5213 163.195 59.4438 163.195 64.5814C163.195 69.719 166.393 73.6414 171.254 73.6414C176.114 73.6414 179.312 69.719 179.312 64.5814C179.312 59.4438 176.114 55.5213 171.254 55.5213Z" fill="white"/>
<path fill-rule="evenodd" clip-rule="evenodd" d="M207.494 48.0601C217.13 48.0601 224.506 55.5213 224.506 64.5814C224.506 73.6414 217.13 81.1027 207.494 81.1027C197.858 81.1027 190.482 73.6414 190.482 64.5814C190.482 55.5213 197.858 48.0601 207.494 48.0601ZM207.494 55.5213C202.634 55.5213 199.436 59.4438 199.436 64.5814C199.436 69.719 202.634 73.6414 207.494 73.6414C212.354 73.6414 215.552 69.719 215.552 64.5814C215.552 59.4438 212.354 55.5213 207.494 55.5213Z" fill="white"/>
<path d="M229.669 80.2981C229.669 80.7692 230.049 81.1508 230.52 81.1508C231.832 81.1508 234.534 81.1508 237.694 81.1508C244.617 81.1508 249.088 77.1076 249.088 71.1655C249.088 66.8772 246.822 64.3042 241.002 61.7925L240.022 61.3636C236.163 59.7098 235.121 58.7905 235.121 57.4428C235.121 55.8504 236.469 54.9312 238.797 54.9312C240.314 54.9312 242.689 54.9312 243.949 54.9312C244.42 54.9312 244.8 54.5496 244.8 54.0787V48.923C244.8 48.4521 244.42 48.0703 243.949 48.0703C242.835 48.0703 240.737 48.0703 238.307 48.0703C231.384 48.0703 226.729 52.1748 226.729 57.9331C226.729 62.16 229.301 64.8554 234.876 67.1833L236.224 67.7346C239.654 69.2051 240.573 70.0625 240.573 71.533C240.573 73.3097 239.287 74.2899 237.02 74.2899C235.328 74.2899 232.066 74.2899 230.521 74.2899C230.05 74.2899 229.669 74.6714 229.669 75.1426V80.2981Z" fill="white"/>
<path d="M251.049 55.1814C251.049 55.6521 251.431 56.0341 251.902 56.0341H255.833C256.304 56.0341 256.685 56.4157 256.685 56.8868V79.3792C256.685 79.8504 257.067 80.232 257.538 80.232H263.919C264.39 80.232 264.772 79.8504 264.772 79.3792V56.8868C264.772 56.4157 265.154 56.0341 265.625 56.0341H270.903C271.374 56.0341 271.756 55.6521 271.756 55.1814V49.8418C271.756 49.3709 271.374 48.9891 270.903 48.9891H265.625C265.154 48.9891 264.772 48.6074 264.772 48.1364V41.2838C264.772 40.7034 264.205 40.2926 263.653 40.4736L257.272 42.5683C256.922 42.6833 256.685 43.01 256.685 43.3785V48.1364C256.685 48.6074 256.304 48.9891 255.833 48.9891H251.902C251.431 48.9891 251.049 49.3709 251.049 49.8418V55.1814Z" fill="white"/>
<path d="M264.059 35.0562H256.75C256.414 35.0562 256.141 35.4379 256.141 35.9089C256.141 36.3798 256.414 36.7616 256.75 36.7616H264.059C264.396 36.7616 264.668 36.3798 264.668 35.9089C264.668 35.4379 264.396 35.0562 264.059 35.0562Z" fill="white"/>
<path d="M259.549 38.8933H244.207C243.734 38.8933 243.351 39.2412 243.351 39.6704V39.8216C243.351 40.2508 243.734 40.5987 244.207 40.5987H259.549C260.021 40.5987 260.405 40.2508 260.405 39.8216V39.6704C260.405 39.2412 260.021 38.8933 259.549 38.8933Z" fill="white"/>
<path d="M247.112 42.7306H239.589C239.311 42.7306 239.087 43.104 239.087 43.5646V43.602C239.087 44.0626 239.311 44.436 239.589 44.436H247.112C247.39 44.436 247.614 44.0626 247.614 43.602V43.5646C247.614 43.104 247.39 42.7306 247.112 42.7306Z" fill="white"/>
</g>
<defs>
<radialGradient id="paint0_radial_1621_2075" cx="0" cy="0" r="1" gradientTransform="matrix(12.317 13.5026 -32.7789 30.1971 56.817 61.0253)" gradientUnits="userSpaceOnUse">
<stop stop-color="#36A13B" stop-opacity="0"/>
<stop offset="0.145095" stop-color="#36A13B" stop-opacity="0.15"/>
<stop offset="0.867238" stop-color="#36A13B"/>
</radialGradient>
<radialGradient id="paint1_radial_1621_2075" cx="0" cy="0" r="1" gradientTransform="matrix(-12.7143 -13.8998 33.9314 -31.0084 45.2948 24.8862)" gradientUnits="userSpaceOnUse">
<stop stop-color="#36A13B" stop-opacity="0"/>
<stop offset="0.133024" stop-color="#36A13B" stop-opacity="0.15"/>
<stop offset="0.867238" stop-color="#36A13B"/>
</radialGradient>
<clipPath id="clip0_1621_2075">
<rect width="153.915" height="48.6046" fill="white" transform="translate(118.002 32.9243)"/>
</clipPath>
</defs>
</svg>
