<svg width="32" height="32" viewBox="0 0 32 32" fill="none" xmlns="http://www.w3.org/2000/svg">
  <g transform="translate(2.5 4) scale(0.73)">
    <mask id="m0" style="mask-type:luminance" maskUnits="userSpaceOnUse" x="12" y="0" width="25" height="30">
      <path d="M27.0514 0.726417H27.0655C28.6523 0.729323 30.1682 1.36286 31.2251 2.46138C33.1094 4.37942 36.2915 8.59913 36.2915 15.1554C36.2915 21.2176 33.5968 25.1902 31.3385 27.4541C29.0773 29.6773 25.1444 29.6773 22.9088 27.4686C22.8663 27.428 22.8294 27.3844 22.7898 27.3408L17.3778 20.988L20.3643 18.3114L25.7083 24.5858C26.445 25.2484 27.8703 25.2309 28.5786 24.5305C30.2787 22.8246 32.3245 19.8023 32.3245 15.1554C32.3245 10.5085 30.1994 7.15188 28.4143 5.33554C28.0799 4.98971 27.5897 4.79791 27.0542 4.79791H27.0485C26.5272 4.79791 26.0455 4.97809 25.7168 5.29486L19.1062 13.0019C20.1999 13.0019 21.0868 13.9144 21.0868 15.0362C21.0868 16.158 20.1999 17.0705 19.1034 17.0705H14.7199C13.9407 17.0705 13.2323 16.6026 12.9121 15.8732C12.592 15.1437 12.7166 14.2922 13.2295 13.6907L22.7898 2.54856C22.8181 2.51659 22.8436 2.48753 22.8748 2.45557C23.943 1.35414 25.4646 0.723511 27.0514 0.723511V0.726417Z" fill="white"/>
    </mask>
    <g mask="url(#m0)">
      <rect x="12.0082" y="-0.0990601" width="25.0256" height="29.9913" fill="url(#g0)"/>
    </g>
    <mask id="m1" style="mask-type:luminance" maskUnits="userSpaceOnUse" x="0" y="0" width="25" height="30">
      <path d="M9.94849 29.2733H9.93432C8.34755 29.2704 6.83162 28.6368 5.77472 27.5383C3.89044 25.6203 0.708405 21.4006 0.708405 14.8443C0.708405 8.78505 3.40307 4.81236 5.66138 2.54849C7.92253 0.325295 11.8554 0.325295 14.0911 2.53396C14.1336 2.57464 14.1704 2.61823 14.2101 2.66183L19.6221 9.01463L16.6356 11.6912L11.2916 5.41684C10.5549 4.75424 9.1296 4.77168 8.42122 5.47206C6.72112 7.17795 4.67532 10.2003 4.67532 14.8472C4.67532 19.4941 6.80045 22.8507 8.58557 24.6671C8.91992 25.0129 9.41012 25.2047 9.94565 25.2047H9.95132C10.4727 25.2047 10.9544 25.0245 11.2831 24.7077L17.8937 17.0007C16.7999 17.0007 15.913 16.0882 15.913 14.9664C15.913 13.8446 16.7999 12.9321 17.8965 12.9321H22.2799C23.0591 12.9321 23.7675 13.4 24.0877 14.1294C24.4079 14.8589 24.2832 15.7104 23.7704 16.3119L14.2158 27.454C14.1874 27.486 14.1619 27.5151 14.1307 27.547C13.0625 28.6485 11.5409 29.2791 9.95415 29.2791L9.94849 29.2733Z" fill="white"/>
    </mask>
    <g mask="url(#m1)">
      <rect x="-0.096405" y="0.0405273" width="25.1616" height="29.9913" fill="url(#g1)"/>
    </g>
  </g>
  <defs>
    <radialGradient id="g0" cx="0" cy="0" r="1" gradientTransform="matrix(4.39194 4.94043 -11.6881 11.0487 20.2595 21.6504)" gradientUnits="userSpaceOnUse">
      <stop stop-color="#36a13b" stop-opacity="0"/>
      <stop offset="0.145095" stop-color="#36a13b" stop-opacity="0.15"/>
      <stop offset="0.867238" stop-color="#36a13b"/>
    </radialGradient>
    <radialGradient id="g1" cx="0" cy="0" r="1" gradientTransform="matrix(-4.53362 -5.08573 12.0991 -11.3455 16.151 8.42758)" gradientUnits="userSpaceOnUse">
      <stop stop-color="#36a13b" stop-opacity="0"/>
      <stop offset="0.133024" stop-color="#36a13b" stop-opacity="0.15"/>
      <stop offset="0.867238" stop-color="#36a13b"/>
    </radialGradient>
  </defs>
</svg>
