<svg width="107" height="106" viewBox="0 0 107 106" fill="none" xmlns="http://www.w3.org/2000/svg">
<g clip-path="url(#clip0_1449_7387)">
<path d="M47.5261 69.5664L41.8954 71.1826C42.4106 72.6503 42.7851 75.2829 42.7851 78.7766V96.0803H49.0763V77.7647C50.2476 76.297 51.515 75.5878 52.9243 75.5878C53.6263 75.5878 54.1427 75.7397 54.7561 76.0938L56.4897 70.1237C55.505 69.668 55.0815 69.5664 54.1416 69.5664C53.4396 69.5664 52.5958 69.7183 52.0762 69.9718C50.9048 70.5794 49.4038 71.9422 48.5108 73.259C48.4191 71.7903 48.0873 70.6297 47.5261 69.5664ZM25.6848 61.014H24.9998V96.0803H31.5726V80.5448H39.8758V74.7769H31.5726V66.7305H41.9412L42.3434 63.6673C36.1088 63.1789 30.4471 62.1527 25.6848 61.0129V61.014ZM10.2892 100.734L13.3393 104.379C16.2944 103.164 20.0006 100.43 20.9437 96.1306C21.2723 94.7165 21.4099 93.8018 21.4099 89.2491V61.0938H14.7486V90.0086C14.7486 93.8018 14.6078 95.2192 14.0914 96.4846C13.4812 97.902 11.9769 99.6232 10.2892 100.734ZM70.1399 82.9742C70.1399 89.0961 68.9675 91.7254 66.246 91.7254C65.0244 91.7254 63.6162 91.0206 63.055 89.6032C62.5398 88.2874 62.257 86.0592 62.257 83.0758C62.257 80.4935 62.4896 78.675 62.9132 77.3079C63.4284 75.6883 64.65 74.6753 66.1499 74.6753C67.2765 74.6753 68.2612 75.1813 68.8714 76.0424C69.7153 77.2074 70.1389 79.4848 70.1389 82.9752L70.1399 82.9742ZM73.988 93.0445C76.0534 90.5135 76.9922 87.4755 76.9922 83.0244C76.9922 78.8225 76.1452 75.9911 74.2206 73.5606C72.1594 70.9313 69.4827 69.6658 66.055 69.6658C59.5803 69.6658 55.2629 75.0796 55.2629 83.2266C55.2629 91.3736 59.5313 96.6355 66.055 96.6355C69.7655 96.6355 72.1584 95.2683 73.988 93.0445ZM92.009 78.5187C92.009 80.8978 90.6467 82.2146 88.161 82.2146C85.9547 82.2146 84.4505 81.1513 84.4505 78.5187C84.4505 76.0927 85.8128 74.6742 88.2068 74.6742C90.6008 74.6742 92.009 76.0916 92.009 78.5187ZM103.13 73.0044L100.503 68.7052C99.0491 70.1226 97.2622 70.9324 95.5296 70.9324C94.7316 70.9324 94.3081 70.8275 92.5713 70.3762C90.8344 69.8702 89.6161 69.7183 88.2538 69.7183C82.1045 69.7183 78.1188 73.1574 78.1188 78.4728C78.1188 82.3174 79.8065 84.6964 83.2802 85.6581C81.8719 86.0122 80.3218 86.7684 79.6199 87.6285C79.1046 88.2361 78.8677 89.0458 78.8677 90.0075C78.8677 90.8173 79.0544 91.5265 79.3371 92.1341C79.6657 92.6915 80.1351 93.1472 80.6995 93.3963C81.8261 93.8553 83.6578 94.1591 86.4711 94.2061C87.9252 94.2061 88.8192 94.2564 89.1467 94.2564C90.8835 94.358 91.7733 94.6618 92.4294 95.0192C93.0866 95.4202 93.556 96.3317 93.556 97.3447C93.556 98.3567 92.9489 99.3697 92.056 99.9773C91.2121 100.582 89.8498 100.834 88.0671 100.834C85.1546 100.834 83.5629 99.7238 83.5629 97.6485C83.5629 96.7371 83.6578 96.5349 83.8413 95.9776H78.0239C77.7913 96.4836 77.4595 97.1928 77.4595 98.6102C77.4595 100.382 78.1199 101.897 79.4332 103.213C81.5903 105.39 85.113 105.998 88.5375 105.998C92.2907 105.998 95.9051 105.086 98.0164 102.657C99.3297 101.138 99.9399 99.4713 99.9399 97.2944C99.9399 94.9656 99.2827 93.1942 97.8745 91.7801C96.1868 90.1091 94.2633 89.5015 90.6019 89.4513L87.22 89.401C86.5639 89.401 86.1894 89.1475 86.1894 88.7934C86.1894 88.0842 87.0824 87.4776 88.6784 86.6712C89.1478 86.7214 89.3345 86.7214 89.6172 86.7214C94.7327 86.7214 98.4848 83.4812 98.4848 79.0258C98.4848 77.3079 98.0154 75.9921 97.0765 74.7769C97.8745 74.8786 98.1114 74.9288 98.7184 74.9288C100.455 74.9288 101.768 74.3715 103.132 73.0055L103.13 73.0044ZM24.0258 30.5583C16.16 32.5286 10.8162 36.3841 10.8162 40.8209C10.8162 43.5661 12.8667 46.0861 16.288 48.075C15.2607 46.3899 14.6995 44.6184 14.6995 42.788C14.6995 38.1741 18.187 33.9318 24.0269 30.5583H24.0258ZM106.999 47.8903C106.999 44.9824 105.249 42.2853 102.272 40.0723C102.54 40.9586 102.692 41.8656 102.692 42.788C102.692 51.1196 91.3327 58.247 75.2309 61.2019C77.0488 61.4118 78.9413 61.5276 80.883 61.5276C95.3077 61.5276 106.999 55.4231 106.999 47.8914V47.8903ZM97.7188 43.3595C97.7188 40.304 95.1626 37.4725 90.8099 35.1361C91.8298 36.4016 92.3846 37.7501 92.3846 39.15C92.3846 46.5342 77.0242 52.5228 58.0782 52.5228C39.1355 52.5228 23.7751 46.5342 23.7751 39.15C23.7751 38.2102 24.0258 37.2955 24.4952 36.4125C21.4526 38.4735 19.7158 40.8428 19.7158 43.3584C19.7158 51.3535 37.1757 57.8372 58.7173 57.8372C80.2589 57.8372 97.7188 51.3535 97.7188 43.3584V43.3595ZM80.6824 43.0011C72.7355 48.263 48.2537 50.2475 37.7091 43.5005C29.4454 38.2102 32.2799 29.8239 8.642 11.3454C5.55244 8.93031 9.21383 6.36656 11.5299 8.00797C13.8418 9.64938 11.7241 10.0876 16.3947 14.8752C25.8234 24.5412 25.7317 15.8511 27.2221 19.1383C30.3532 26.0493 37.2621 33.0094 37.2621 33.0094C44.1848 37.6233 49.7089 38.6287 59.9153 31.556C66.39 27.0678 63.7421 38.691 79.6177 30.3157C85.4074 27.2601 85.1674 29.2851 91.0521 20.8846C93.4951 17.3953 98.1658 23.5642 92.87 24.421C90.7523 24.7641 87.1763 27.1366 85.64 30.8872C83.4722 36.4311 84.411 40.5346 80.6835 43.0011H80.6824ZM36.559 28.7901C34.5961 27.9038 32.5413 24.48 31.7401 23.1052C33.9357 20.9032 33.0459 17.2182 31.8073 15.1932C30.5687 13.1715 29.0645 13.7464 27.4162 11.8875C25.768 10.0286 28.0371 5.18304 30.1527 8.90845C38.0676 22.8594 43.2641 17.0554 49.7313 16.2238C55.9371 15.4249 61.4228 18.8892 63.1073 9.08221C63.3826 7.47686 64.9039 7.09328 65.0596 9.74774C65.2186 12.3978 66.1894 18.8564 69.599 19.6924C73.0129 20.524 75.7206 18.8717 76.5218 17.957C77.3197 17.0423 77.7358 17.1723 78.0889 19.4465C78.4378 21.725 79.303 24.8669 84.0942 21.3666C93.8941 14.2032 91.0873 11.4329 94.8959 9.59256C97.0669 8.54345 100.484 11.9541 95.5424 14.5135C88.4746 18.1734 87.7268 22.7184 83.261 25.6045C75.7558 30.461 78.0505 25.8001 65.9739 24.0385C61.3246 23.3588 59.8279 28.671 56.1985 27.1377C47.8249 23.5937 41.9828 24.2735 36.5601 28.7901H36.559ZM62.7318 2.93074C63.007 5.02458 63.3495 4.97322 64.0835 5.16883C64.8143 5.36007 65.7424 4.18202 65.7744 3.03893C65.8064 1.89256 65.2975 1.17349 64.1934 1.21283C63.0924 1.25655 62.6966 1.82372 62.7318 2.93074ZM99.1249 6.74249C100.004 7.62111 102.351 7.02771 102.898 6.39934C104.303 4.78635 104.352 3.81374 103.629 2.73294C102.901 1.65542 101.369 1.85104 99.8514 2.97883C98.3365 4.10333 98.6224 6.24416 99.1238 6.74358L99.1249 6.74249ZM98.4645 17.3953C97.7092 18.4225 97.6878 19.1492 98.2244 19.7164C98.7963 20.3207 99.9826 20.8453 100.837 20.147C101.687 19.4563 101.687 18.4477 100.964 17.5581C100.237 16.6685 99.2486 16.6685 98.4645 17.3953ZM23.8679 4.80055C25.019 5.16227 25.5237 6.25837 26.4945 5.00709C26.9746 4.38856 27.0204 3.57223 26.3857 2.64989C25.9835 2.07507 24.1154 1.67728 23.3217 2.49799C22.528 3.31869 23.2513 4.60603 23.869 4.80164L23.8679 4.80055ZM0.79114 4.09569C2.85334 5.38958 4.20502 7.35009 5.75834 5.60049C6.28109 5.01802 6.934 3.91537 5.80741 1.80405C4.98488 0.259896 2.27405 -0.372845 1.31709 0.220554C0.360137 0.809583 -0.808052 3.09139 0.79114 4.09678V4.09569ZM19.8438 14.1124C20.4999 14.8108 21.6158 14.7528 22.2837 14.3769C22.9472 13.9933 22.8096 12.9377 22.1706 12.0153C21.7716 11.4405 20.5821 11.1728 19.7873 11.9935C18.9935 12.8142 19.3851 13.624 19.8438 14.1124Z" fill="#40BE46"/>
</g>
<defs>
<clipPath id="clip0_1449_7387">
<rect width="107" height="106" fill="white"/>
</clipPath>
</defs>
</svg>
