<svg width="707" height="434" viewBox="0 0 707 434" fill="none" xmlns="http://www.w3.org/2000/svg">
<g clip-path="url(#clip0_1395_13562)">
<rect width="707" height="434" fill="black"/>
<rect y="426" width="840" height="8" fill="#40BE46"/>
<mask id="mask0_1395_13562" style="mask-type:luminance" maskUnits="userSpaceOnUse" x="102" y="168" width="78" height="93">
<path d="M149.282 168.532H149.328C154.565 168.541 159.568 170.586 163.057 174.131C169.275 180.32 179.778 193.938 179.778 215.095C179.778 234.658 170.884 247.478 163.431 254.784C155.968 261.959 142.988 261.959 135.609 254.831C135.469 254.7 135.347 254.559 135.216 254.418L117.354 233.918L127.211 225.28L144.849 245.528C147.28 247.666 151.984 247.61 154.322 245.35C159.933 239.844 166.685 230.091 166.685 215.095C166.685 200.099 159.671 189.267 153.78 183.406C152.676 182.29 151.058 181.671 149.291 181.671H149.272C147.551 181.671 145.962 182.252 144.877 183.275L123.059 208.146C126.669 208.146 129.596 211.091 129.596 214.711C129.596 218.331 126.669 221.276 123.05 221.276H108.582C106.011 221.276 103.673 219.765 102.616 217.412C101.559 215.058 101.971 212.31 103.663 210.369L135.216 174.412C135.31 174.309 135.394 174.215 135.497 174.112C139.022 170.558 144.044 168.523 149.282 168.523V168.532Z" fill="white"/>
</mask>
<g mask="url(#mask0_1395_13562)">
<mask id="mask1_1395_13562" style="mask-type:luminance" maskUnits="userSpaceOnUse" x="99" y="166" width="84" height="97">
<path d="M182.116 166.187H99.7073V262.502H182.116V166.187Z" fill="white"/>
</mask>
<g mask="url(#mask1_1395_13562)">
<path d="M182.228 165.868H99.6326V262.652H182.228V165.868Z" fill="url(#paint0_radial_1395_13562)"/>
</g>
</g>
<mask id="mask2_1395_13562" style="mask-type:luminance" maskUnits="userSpaceOnUse" x="62" y="169" width="79" height="92">
<path d="M92.8344 260.655H92.7877C87.5506 260.645 82.5474 258.601 79.0592 255.056C72.8402 248.867 62.3381 235.249 62.3381 214.092C62.3381 194.538 71.2317 181.718 78.6851 174.412C86.1479 167.238 99.1282 167.238 106.507 174.365C106.647 174.497 106.769 174.637 106.9 174.778L124.761 195.279L114.905 203.916L97.2672 183.669C94.8357 181.53 90.1318 181.587 87.7938 183.847C82.1827 189.352 75.4307 199.105 75.4307 214.101C75.4307 229.097 82.4445 239.929 88.3362 245.79C89.4397 246.906 91.0576 247.525 92.8251 247.525H92.8438C94.5645 247.525 96.1543 246.944 97.2391 245.922L119.057 221.05C115.447 221.05 112.52 218.106 112.52 214.486C112.52 210.866 115.447 207.921 119.066 207.921H133.534C136.105 207.921 138.443 209.431 139.5 211.785C140.557 214.139 140.145 216.886 138.453 218.828L106.918 254.784C106.825 254.888 106.741 254.981 106.638 255.084C103.112 258.639 98.0902 260.674 92.8531 260.674L92.8344 260.655Z" fill="white"/>
</mask>
<g mask="url(#mask2_1395_13562)">
<mask id="mask3_1395_13562" style="mask-type:luminance" maskUnits="userSpaceOnUse" x="59" y="166" width="84" height="97">
<path d="M142.408 166.684H59.9998V262.999H142.408V166.684Z" fill="white"/>
</mask>
<g mask="url(#mask3_1395_13562)">
<path d="M142.726 166.319H59.6819V263.103H142.726V166.319Z" fill="url(#paint1_radial_1395_13562)"/>
</g>
</g>
<path d="M205.344 252.753C205.344 253.357 205.832 253.847 206.434 253.847H214.594C215.195 253.847 215.684 253.357 215.684 252.753V223.898C215.684 223.293 216.172 222.804 216.774 222.804H223.915C224.517 222.804 225.005 222.314 225.005 221.71V214.86C225.005 214.256 224.517 213.766 223.915 213.766H216.774C216.172 213.766 215.684 213.276 215.684 212.672V210.465C215.684 207.007 217.564 204.964 220.775 204.964C221.539 204.964 222.954 204.964 223.941 204.964C224.543 204.964 225.031 204.474 225.031 203.87V196.391C225.031 195.787 224.544 195.297 223.941 195.297C222.998 195.297 221.488 195.297 219.6 195.297C210.201 195.297 205.344 200.327 205.344 210.151V212.672C205.344 213.276 204.856 213.766 204.253 213.766H199.62C199.017 213.766 198.529 214.256 198.529 214.86V221.71C198.529 222.314 199.017 222.804 199.62 222.804H204.253C204.856 222.804 205.344 223.293 205.344 223.898V252.753Z" fill="white"/>
<path d="M271.029 233.806C271.029 222.175 261.847 212.587 248.234 212.587C237.368 212.587 227.477 222.018 227.477 233.806C227.477 245.595 236.72 255.025 248.234 255.025C252.332 255.025 256.159 253.833 259.358 251.719C260.133 251.207 261.238 251.735 261.238 252.666V252.753C261.238 253.357 261.725 253.847 262.328 253.847H269.938C270.541 253.847 271.029 253.362 271.029 252.758C271.029 250.04 271.029 242.543 271.029 233.806ZM238.365 233.806C238.365 227.205 243.3 222.175 249.566 222.175C255.754 222.175 260.689 227.205 260.689 233.806C260.689 240.408 255.754 245.438 249.566 245.438C243.3 245.438 238.365 240.408 238.365 233.806Z" fill="white"/>
<path d="M280.909 253.931C280.909 254.536 281.394 255.025 281.997 255.025C283.675 255.025 287.129 255.025 291.17 255.025C300.022 255.025 305.74 249.838 305.74 242.215C305.74 236.714 302.842 233.413 295.4 230.191L294.147 229.641C289.212 227.519 287.88 226.34 287.88 224.611C287.88 222.568 289.604 221.389 292.581 221.389C294.52 221.389 297.557 221.389 299.168 221.389C299.771 221.389 300.257 220.899 300.257 220.295V213.681C300.257 213.077 299.771 212.587 299.168 212.587C297.744 212.587 295.062 212.587 291.954 212.587C283.102 212.587 277.149 217.852 277.149 225.24C277.149 230.663 280.439 234.12 287.567 237.107L289.29 237.814C293.677 239.7 294.852 240.8 294.852 242.687C294.852 244.966 293.207 246.224 290.309 246.224C288.145 246.224 283.974 246.224 281.998 246.224C281.396 246.224 280.909 246.713 280.909 247.317V253.931Z" fill="white"/>
<path d="M309.664 221.71C309.664 222.314 310.153 222.804 310.755 222.804H315.78C316.383 222.804 316.871 223.293 316.871 223.898V252.753C316.871 253.357 317.359 253.847 317.961 253.847H326.121C326.722 253.847 327.211 253.357 327.211 252.753V223.898C327.211 223.293 327.699 222.804 328.301 222.804H335.05C335.652 222.804 336.141 222.314 336.141 221.71V214.86C336.141 214.256 335.652 213.766 335.05 213.766H328.301C327.699 213.766 327.211 213.276 327.211 212.672V203.881C327.211 203.136 326.485 202.609 325.78 202.842L317.621 205.529C317.173 205.676 316.871 206.095 316.871 206.568V212.672C316.871 213.276 316.383 213.766 315.78 213.766H310.755C310.153 213.766 309.664 214.256 309.664 214.86V221.71Z" fill="white"/>
<path d="M380.614 243.488C380.876 242.96 380.638 242.329 380.108 242.076L372.614 238.502C372.024 238.22 371.323 238.524 371.048 239.12C369.276 242.954 365.441 245.438 361.084 245.438C354.817 245.438 349.882 240.329 349.882 233.806C349.882 227.283 354.817 222.175 361.084 222.175C364.981 222.175 368.364 224.103 370.25 227.263C370.576 227.808 371.27 228.044 371.825 227.737L379.087 223.723C379.614 223.432 379.808 222.766 379.491 222.255C375.736 216.216 368.835 212.587 361.084 212.587C348.786 212.587 338.994 222.018 338.994 233.806C338.994 245.595 348.786 255.025 361.162 255.025C369.637 255.025 377.107 250.559 380.614 243.488Z" fill="white"/>
<path d="M383.826 201.899C383.826 205.514 387.274 208.186 390.955 208.186C394.715 208.186 397.692 205.435 397.692 201.899C397.692 198.284 394.715 195.612 390.955 195.612C387.274 195.612 383.826 198.284 383.826 201.899ZM385.864 252.753C385.864 253.357 386.352 253.847 386.954 253.847H395.113C395.716 253.847 396.204 253.357 396.204 252.753V215.24C396.204 214.506 395.497 213.981 394.797 214.193L386.638 216.674C386.178 216.814 385.864 217.239 385.864 217.721V252.753Z" fill="white"/>
<path d="M390.913 195.615H377.829C377.227 195.615 376.739 196.104 376.739 196.708C376.739 197.313 377.227 197.802 377.829 197.802H390.913C391.515 197.802 392.003 197.313 392.003 196.708C392.003 196.104 391.515 195.615 390.913 195.615Z" fill="white"/>
<path d="M388.157 200.675H368.618C368.016 200.675 367.528 201.165 367.528 201.769V201.982C367.528 202.586 368.016 203.076 368.618 203.076H388.157C388.759 203.076 389.248 202.586 389.248 201.982V201.769C389.248 201.165 388.759 200.675 388.157 200.675Z" fill="white"/>
<path d="M391.458 205.93H375.103C374.501 205.93 374.013 206.42 374.013 207.024V207.073C374.013 207.677 374.501 208.167 375.103 208.167H391.458C392.06 208.167 392.548 207.677 392.548 207.073V207.024C392.548 206.42 392.06 205.93 391.458 205.93Z" fill="white"/>
<path d="M201.609 191.073C201.077 191.073 200.611 191.042 200.212 190.98C199.804 190.927 199.458 190.86 199.174 190.78V187.335C199.458 187.397 199.763 187.455 200.092 187.508C200.412 187.57 200.753 187.602 201.117 187.602C201.596 187.602 202.026 187.508 202.408 187.321C202.79 187.143 203.091 186.8 203.313 186.293C203.535 185.786 203.646 185.055 203.646 184.103V165.809H207.772V184.076C207.772 185.75 207.51 187.099 206.986 188.122C206.472 189.155 205.749 189.903 204.817 190.366C203.894 190.838 202.825 191.073 201.609 191.073ZM216.729 185.331H212.67V165.809H223.823V169.2H216.729V174.235H223.331V177.613H216.729V185.331ZM235.615 170.122C235.819 170.122 236.054 170.135 236.321 170.162C236.596 170.18 236.818 170.206 236.986 170.242L236.68 174.061C236.547 174.017 236.356 173.985 236.108 173.968C235.868 173.941 235.66 173.928 235.482 173.928C234.959 173.928 234.448 173.994 233.952 174.128C233.464 174.261 233.024 174.479 232.634 174.782C232.244 175.076 231.933 175.468 231.702 175.957C231.48 176.438 231.37 177.03 231.37 177.733V185.331H227.31V170.402H230.385L230.984 172.913H231.183C231.476 172.405 231.84 171.942 232.275 171.524C232.718 171.097 233.219 170.758 233.779 170.509C234.346 170.251 234.959 170.122 235.615 170.122ZM253.211 177.84C253.211 179.086 253.042 180.19 252.705 181.152C252.376 182.113 251.893 182.928 251.254 183.596C250.624 184.254 249.861 184.753 248.965 185.091C248.077 185.429 247.075 185.599 245.957 185.599C244.91 185.599 243.947 185.429 243.069 185.091C242.199 184.753 241.44 184.254 240.793 183.596C240.154 182.928 239.657 182.113 239.302 181.152C238.956 180.19 238.783 179.086 238.783 177.84C238.783 176.184 239.076 174.782 239.662 173.634C240.247 172.485 241.081 171.613 242.163 171.016C243.246 170.42 244.537 170.122 246.037 170.122C247.43 170.122 248.663 170.42 249.737 171.016C250.819 171.613 251.667 172.485 252.279 173.634C252.9 174.782 253.211 176.184 253.211 177.84ZM242.922 177.84C242.922 178.819 243.029 179.643 243.242 180.311C243.455 180.978 243.787 181.481 244.24 181.819C244.692 182.158 245.283 182.327 246.01 182.327C246.729 182.327 247.31 182.158 247.753 181.819C248.206 181.481 248.535 180.978 248.739 180.311C248.952 179.643 249.058 178.819 249.058 177.84C249.058 176.852 248.952 176.033 248.739 175.383C248.535 174.724 248.206 174.23 247.753 173.901C247.301 173.571 246.711 173.407 245.983 173.407C244.91 173.407 244.129 173.776 243.641 174.515C243.162 175.254 242.922 176.362 242.922 177.84ZM260.917 191.901C258.84 191.901 257.252 191.536 256.152 190.806C255.061 190.085 254.515 189.07 254.515 187.762C254.515 186.863 254.794 186.11 255.354 185.505C255.912 184.9 256.733 184.468 257.815 184.21C257.398 184.032 257.035 183.742 256.724 183.342C256.414 182.932 256.259 182.501 256.259 182.046C256.259 181.477 256.423 181.005 256.751 180.631C257.08 180.248 257.554 179.874 258.175 179.509C257.394 179.171 256.773 178.628 256.312 177.88C255.859 177.132 255.633 176.251 255.633 175.236C255.633 174.15 255.868 173.229 256.338 172.472C256.817 171.706 257.51 171.123 258.415 170.723C259.328 170.322 260.438 170.122 261.742 170.122C262.017 170.122 262.337 170.14 262.7 170.175C263.064 170.211 263.397 170.251 263.698 170.295C264.009 170.34 264.218 170.375 264.324 170.402H269.515V172.472L267.186 173.073C267.399 173.402 267.559 173.754 267.665 174.128C267.771 174.502 267.825 174.898 267.825 175.316C267.825 176.919 267.265 178.17 266.148 179.069C265.038 179.959 263.494 180.404 261.516 180.404C261.046 180.377 260.602 180.342 260.185 180.297C259.981 180.457 259.826 180.627 259.719 180.805C259.612 180.983 259.559 181.17 259.559 181.365C259.559 181.561 259.639 181.726 259.799 181.86C259.967 181.984 260.216 182.082 260.544 182.153C260.881 182.216 261.299 182.247 261.795 182.247H264.324C265.957 182.247 267.199 182.598 268.051 183.302C268.912 184.005 269.342 185.038 269.342 186.4C269.342 188.145 268.614 189.498 267.159 190.459C265.713 191.421 263.632 191.901 260.917 191.901ZM261.09 189.244C262.057 189.244 262.887 189.151 263.579 188.964C264.28 188.786 264.816 188.527 265.189 188.189C265.562 187.86 265.748 187.464 265.748 187.001C265.748 186.627 265.637 186.329 265.416 186.106C265.202 185.892 264.874 185.741 264.43 185.652C263.996 185.563 263.437 185.518 262.754 185.518H260.651C260.154 185.518 259.706 185.599 259.307 185.759C258.916 185.919 258.605 186.142 258.375 186.426C258.144 186.72 258.029 187.059 258.029 187.441C258.029 188.002 258.295 188.443 258.827 188.763C259.369 189.084 260.123 189.244 261.09 189.244ZM261.742 177.92C262.505 177.92 263.064 177.684 263.419 177.212C263.774 176.741 263.951 176.1 263.951 175.29C263.951 174.39 263.765 173.718 263.392 173.273C263.029 172.819 262.478 172.592 261.742 172.592C260.997 172.592 260.438 172.819 260.065 173.273C259.692 173.718 259.506 174.39 259.506 175.29C259.506 176.1 259.688 176.741 260.052 177.212C260.425 177.684 260.988 177.92 261.742 177.92Z" fill="#36A13B"/>
</g>
<defs>
<radialGradient id="paint0_radial_1395_13562" cx="0" cy="0" r="1" gradientTransform="matrix(14.4953 15.9431 -38.5759 35.6549 126.865 236.055)" gradientUnits="userSpaceOnUse">
<stop stop-color="#36A13B" stop-opacity="0"/>
<stop offset="0.145095" stop-color="#36A13B" stop-opacity="0.15"/>
<stop offset="0.867238" stop-color="#36A13B"/>
</radialGradient>
<radialGradient id="paint1_radial_1395_13562" cx="0" cy="0" r="1" gradientTransform="matrix(-14.9629 -16.412 39.9323 -36.6129 113.305 193.384)" gradientUnits="userSpaceOnUse">
<stop stop-color="#36A13B" stop-opacity="0"/>
<stop offset="0.133024" stop-color="#36A13B" stop-opacity="0.15"/>
<stop offset="0.867238" stop-color="#36A13B"/>
</radialGradient>
<clipPath id="clip0_1395_13562">
<rect width="707" height="434" fill="white"/>
</clipPath>
</defs>
</svg>
