<svg width="840" height="434" viewBox="0 0 840 434" fill="none" xmlns="http://www.w3.org/2000/svg">
<rect width="840" height="434" fill="black"/>
<path d="M416.145 191.033H424.571C424.97 191.033 425.325 190.721 425.325 190.275V182.695C425.325 182.294 424.97 181.938 424.571 181.938H416.145C415.745 181.938 415.391 182.25 415.391 182.695V190.275C415.391 190.676 415.745 191.033 416.145 191.033Z" fill="#0091E2"/>
<path d="M401.065 201.913H392.639C392.24 201.913 391.929 201.557 391.885 201.155V193.576C391.885 193.13 392.24 192.818 392.639 192.818H401.065C401.509 192.818 401.819 193.175 401.819 193.576V201.155C401.819 201.557 401.465 201.913 401.065 201.913Z" fill="#0091E2"/>
<path d="M459.075 205.97C464.22 205.97 466.615 207.798 466.881 208.021L467.813 208.69L467.413 209.849C466.748 211.454 465.817 212.881 464.575 214.04C462.712 215.913 459.342 218.097 453.887 218.097H453C450.826 223.715 447.855 230.047 442.843 235.709C439.872 239.098 436.368 241.996 432.465 244.27C427.72 246.989 422.575 248.862 417.209 249.843C413.35 250.556 409.448 250.913 405.545 250.913C396.896 250.913 389.224 249.263 384.523 246.365C380.354 243.779 377.116 239.543 374.943 233.836C373.036 228.62 372.105 223.091 372.193 217.562C372.193 215.913 373.524 214.575 375.165 214.575H438.142C438.94 214.531 442.755 214.218 445.105 212.881C443.154 209.76 442.577 206.104 443.509 202.225C443.996 200.218 444.839 198.257 445.948 196.518L446.835 195.225L448.21 196.027C448.224 196.039 448.263 196.065 448.322 196.104C449.158 196.659 454.129 199.958 455.04 206.327C456.37 206.104 457.745 205.97 459.075 205.97Z" fill="#0091E2"/>
<path d="M389.446 212.746H381.019C380.62 212.746 380.309 212.434 380.265 211.988V204.409C380.265 203.963 380.62 203.651 381.019 203.651H389.446C389.889 203.651 390.2 204.007 390.2 204.409V211.988C390.2 212.434 389.845 212.746 389.446 212.746Z" fill="#0091E2"/>
<path d="M392.639 212.746H401.065C401.465 212.746 401.819 212.434 401.819 211.988V204.409C401.819 204.007 401.509 203.651 401.065 203.651H392.639C392.24 203.651 391.885 203.963 391.885 204.409V211.988C391.929 212.434 392.24 212.746 392.639 212.746Z" fill="#0091E2"/>
<path d="M412.907 212.746H404.481C404.037 212.746 403.727 212.434 403.727 211.988V204.409C403.727 203.963 404.081 203.651 404.481 203.651H412.907C413.351 203.651 413.661 204.007 413.661 204.409V211.988C413.661 212.434 413.306 212.746 412.907 212.746Z" fill="#0091E2"/>
<path d="M416.145 212.746H424.571C424.97 212.746 425.325 212.434 425.325 211.988V204.409C425.325 204.007 425.015 203.651 424.571 203.651H416.145C415.745 203.651 415.391 203.963 415.391 204.409V211.988C415.391 212.434 415.745 212.746 416.145 212.746Z" fill="#0091E2"/>
<path d="M404.481 201.913H412.907C413.306 201.913 413.661 201.557 413.661 201.155V193.576C413.661 193.175 413.351 192.818 412.907 192.818H404.481C404.081 192.818 403.727 193.13 403.727 193.576V201.155C403.727 201.557 404.037 201.913 404.481 201.913Z" fill="#0091E2"/>
<path d="M424.571 201.913H416.145C415.745 201.913 415.391 201.557 415.391 201.155V193.576C415.391 193.13 415.745 192.818 416.145 192.818H424.571C424.97 192.818 425.325 193.175 425.325 193.576V201.155C425.325 201.557 424.97 201.913 424.571 201.913Z" fill="#0091E2"/>
<path d="M436.324 212.746H427.897C427.498 212.746 427.187 212.434 427.143 211.988V204.409C427.143 203.963 427.498 203.651 427.897 203.651H436.324C436.767 203.651 437.078 204.007 437.078 204.409V211.988C437.078 212.434 436.723 212.746 436.324 212.746Z" fill="#0091E2"/>
</svg>
